<svg xmlns="http://www.w3.org/2000/svg" xmlns:xlink="http://www.w3.org/1999/xlink" width="500" zoomAndPan="magnify" viewBox="0 0 375 374.999991" height="500" preserveAspectRatio="xMidYMid meet" version="1.2"><defs><clipPath id="e173bd48d1"><path d="M 14.53125 0 L 360.28125 0 L 360.28125 375 L 14.53125 375 Z M 14.53125 0 "/></clipPath></defs><g id="1ce8b8905e"><g clip-rule="nonzero" clip-path="url(#e173bd48d1)"><path style=" stroke:none;fill-rule:evenodd;fill:#805cca;fill-opacity:1;" d="M 131.800781 210.492188 C 127.285156 214.886719 123.074219 218.234375 118.558594 222.636719 C 117.742188 224.375 118.773438 226.886719 118.664062 227.796875 C 118.523438 228.976562 116.210938 232.671875 115.332031 233.6875 C 115.222656 235.246094 115.378906 237.992188 114.464844 238.882812 C 115.691406 238.597656 118.875 235.28125 119.925781 234.070312 C 120.484375 233.441406 120.207031 231.914062 120.363281 231.132812 C 120.425781 230.789062 121.054688 228.539062 121.03125 228.476562 C 121.214844 228.929688 121.644531 232.402344 122.117188 231.9375 C 123.417969 230.671875 125.640625 228.0625 126.925781 226.167969 C 127.761719 225.570312 127.277344 222.832031 128.015625 221.492188 C 128.449219 222.328125 128.882812 223.554688 129.179688 225.078125 C 129.457031 224.632812 129.902344 222.765625 130.40625 221.425781 C 130.539062 221.074219 130.4375 220.160156 130.574219 219.898438 C 130.707031 219.652344 131.085938 220 131.363281 220.085938 C 131.980469 219.476562 132.90625 212.183594 131.800781 210.492188 M 249.785156 114.765625 C 250.355469 114.554688 250.828125 114.660156 251.246094 114.917969 C 252.46875 115.636719 253.71875 116.539062 254.976562 117.566406 C 255.453125 118.199219 255.753906 118.683594 255.644531 118.761719 C 253.617188 117.015625 249.765625 115.648438 248.945312 115.957031 C 248.707031 116.039062 248.585938 115.980469 248.382812 116.132812 C 242.597656 120.347656 236.148438 121.742188 232.074219 129.359375 C 230.140625 132.964844 226.394531 140.945312 225.402344 143.882812 C 225.367188 142.566406 224.503906 140.582031 224.511719 138.527344 C 223.367188 140.042969 222.921875 140.855469 220.9375 141.867188 C 213.117188 145.867188 200.808594 148.617188 194.828125 161.003906 C 190.875 165.855469 198.027344 160.246094 205.144531 163.128906 C 193.800781 162.785156 181.152344 169.171875 176.84375 172.25 L 280.164062 79.296875 L 278.703125 88.695312 C 278.496094 90.066406 277.914062 91.453125 277.058594 92.84375 C 276.957031 93.011719 278.453125 93.832031 278.339844 94.003906 C 278.28125 93.960938 276.578125 93.273438 276.476562 93.242188 C 276.015625 93.09375 275.226562 93.054688 275.007812 93.382812 C 270.316406 100.046875 258.734375 107.769531 250.574219 113.417969 C 249.921875 113.863281 249.957031 113.996094 249.785156 114.765625 Z M 93.53125 128.894531 C 98.800781 127.777344 101.65625 129.332031 103.210938 132.628906 C 103.199219 132.324219 103.15625 132.109375 103.082031 132.011719 C 102.890625 130.566406 102.433594 129.015625 101.496094 128.632812 C 104.753906 127.457031 111.890625 130.027344 109.980469 136.046875 C 110.707031 136.679688 113.636719 138.972656 116.746094 141.558594 C 117.449219 142.148438 117.835938 143.386719 118.605469 143.914062 C 123.1875 147.082031 129.472656 147.675781 132.351562 149.804688 C 133.164062 150.410156 134.046875 151.582031 134.589844 152.398438 C 134.929688 152.894531 135.230469 153.640625 135.035156 154.261719 C 134.589844 155.53125 133.121094 156.496094 132.464844 157.574219 C 131.921875 158.480469 132.777344 158.386719 133.382812 158.878906 C 134.414062 159.695312 134.039062 160.777344 134.300781 161.066406 C 135.222656 162.105469 134.449219 162.800781 134.460938 163.328125 C 135.355469 163.328125 135.691406 163.890625 136.066406 164.433594 C 136.988281 165.78125 136.113281 167.164062 137.335938 167.664062 C 137.808594 167.855469 138.324219 168.175781 138.890625 168.566406 C 140.761719 169.128906 142.90625 170.929688 143.460938 172.058594 C 143.621094 172.363281 144.550781 172.867188 144.949219 173.0625 C 146.070312 173.617188 146.089844 178.785156 144.671875 178.796875 C 144.671875 180.214844 144.578125 181.179688 143.875 181.90625 C 143.429688 182.371094 142.40625 182.519531 142.0625 182.878906 C 141.855469 183.082031 141.148438 183.5 141.148438 183.902344 C 141.152344 184.054688 139.84375 185.296875 139.539062 185.300781 C 139.433594 185.292969 137.363281 185.917969 137.152344 186.019531 C 136.601562 186.179688 135.9375 186.792969 135.230469 186.792969 C 134.417969 186.804688 133.703125 186.59375 132.96875 186.449219 C 132.675781 187.878906 133.792969 189.257812 135.195312 189.972656 C 137.671875 191.246094 141.535156 188.433594 144.878906 188.984375 L 110.464844 219.140625 C 114.371094 219.011719 114.773438 219.261719 114.847656 220.429688 L 115.941406 218.6875 L 345.144531 14.582031 L 340.777344 17.566406 C 339.492188 17.046875 338.277344 16.726562 337.027344 15.972656 C 336.773438 15.824219 336.121094 15.464844 336.121094 15.144531 C 340.964844 10.367188 354.019531 3.078125 360.46875 2.550781 C 358.886719 10.078125 352.863281 19.355469 347.328125 24.847656 C 347.003906 24.832031 346.660156 24.15625 346.515625 23.90625 C 345.890625 22.855469 345.636719 21.558594 345.25 20.425781 L 345.128906 20.0625 L 293.421875 67.460938 L 294.046875 67.804688 C 294.679688 67.1875 295.777344 66.109375 295.886719 66.003906 C 295.996094 65.875 297.109375 65.605469 298.257812 65.398438 C 299.539062 65.167969 300.984375 65.03125 301.183594 65.214844 C 301.628906 65.613281 303.371094 67.566406 303.628906 67.980469 C 304.183594 69.132812 304.980469 68.238281 305.640625 69.308594 C 306.1875 70.21875 307.71875 72.640625 307.71875 73.464844 C 307.699219 74.289062 307.222656 74.734375 307.144531 74.882812 C 307.382812 75.085938 307.992188 75.125 308.214844 75.308594 C 308.964844 75.882812 308.761719 75.195312 309.753906 76.648438 C 311.394531 79.070312 311.535156 80.472656 311.636719 80.921875 C 312.429688 81.597656 312.613281 82.722656 313.347656 83.664062 C 313.621094 84.023438 313.101562 85.589844 313.039062 85.898438 C 312.878906 86.675781 312.339844 88.351562 311.277344 89.613281 C 312.957031 89.191406 313.640625 87.546875 314.132812 88.011719 C 314.289062 88.144531 314.367188 88.351562 314.476562 88.519531 C 329.15625 110.269531 340.996094 138.289062 347.097656 168.597656 C 353.496094 200.410156 352.972656 231.824219 344.796875 263.0625 C 341.84375 274.355469 339.03125 285.757812 340.398438 296.992188 C 340.996094 301.945312 342.078125 306.105469 344.691406 308.890625 C 336.480469 311.109375 332.597656 301.140625 332.921875 291.34375 C 333.488281 274.535156 338.867188 257.257812 340.167969 240.179688 C 344.675781 180.871094 329.757812 136.476562 304.46875 96.757812 L 303.648438 97.554688 C 303.5625 97.445312 303.484375 97.339844 303.390625 97.214844 C 303.425781 97.421875 303.398438 97.59375 303.398438 97.59375 C 299.867188 101.628906 295.261719 101.472656 294.175781 102.800781 C 293.722656 103.375 293.234375 103.953125 292.765625 104.550781 L 292.875 104.632812 C 293.390625 104.988281 293.3125 105.964844 292.867188 106.53125 C 285.238281 116.261719 280.257812 127.75 272.25 137.003906 C 271.976562 137.105469 271.378906 137.089844 271.195312 136.859375 C 271.007812 136.621094 271.324219 135.832031 271.144531 135.597656 C 271.128906 135.578125 271.113281 135.550781 271.09375 135.535156 C 270.402344 136.410156 269.667969 137.332031 268.894531 138.261719 C 267.140625 140.390625 265.722656 144.957031 261.023438 149.445312 C 258.511719 151.835938 245.960938 160.292969 244.804688 161.140625 C 243.007812 162.460938 240.730469 167.742188 239.296875 169.148438 C 235.050781 173.304688 238.320312 170.164062 233.222656 176.152344 C 224.375 186.546875 219.472656 187.117188 214.175781 194.765625 C 212.417969 197.292969 209.335938 205.492188 208.859375 208.871094 C 208.503906 211.425781 204.785156 215.058594 203.46875 218.449219 C 201.617188 223.167969 200.933594 222.820312 199.550781 216.777344 C 197.890625 209.527344 196.554688 197.378906 197.136719 190.980469 C 197.246094 189.601562 197.292969 189.027344 196.734375 191.261719 C 194.980469 198.242188 195.308594 205.121094 196.085938 211.019531 C 196.539062 214.511719 198.105469 223.300781 199.105469 226.289062 C 200.695312 231.074219 203.253906 233.246094 205.382812 244.152344 C 206.265625 248.679688 207.421875 252.59375 205.921875 262.292969 C 205.574219 264.5625 201.824219 271.679688 200.132812 274.039062 C 199.429688 275.015625 208.378906 264.808594 209.269531 266.039062 C 213.835938 272.363281 216.273438 275.167969 214.164062 280.78125 C 213.441406 282.699219 211.921875 287.8125 212.3125 290.363281 C 212.945312 294.554688 215.683594 299.457031 215.613281 303.519531 C 215.546875 308.378906 214.382812 313.121094 214.699219 317.4375 C 215.050781 322.050781 217.464844 324.726562 215.667969 330.859375 C 216.078125 331.820312 211.105469 339.296875 201.671875 344.582031 C 201.945312 345.816406 218.371094 338.132812 219.601562 332.691406 C 222.210938 329.542969 222.382812 338.054688 228.25 343.933594 C 228.320312 343.933594 228.386719 343.917969 228.457031 343.898438 C 229.015625 344.308594 224.667969 348.980469 225.207031 349.425781 C 225.746094 349.851562 231.183594 346.054688 231.714844 346.507812 C 236.351562 349.085938 233.871094 355.3125 235.617188 358.125 C 236.175781 358.585938 236.234375 355.457031 237.414062 355.894531 C 238.320312 356.21875 240.347656 359.964844 240.957031 361.207031 C 242.992188 365.371094 244.667969 371.15625 248.203125 374.636719 L 100.808594 374.851562 C 101.144531 374.339844 102.445312 373.191406 103.589844 372.046875 C 105.933594 369.683594 104.15625 365.59375 106.996094 365.203125 C 107.734375 365.101562 108.644531 365.074219 109.589844 365.183594 C 112.394531 365.5 114.226562 369.523438 113.929688 366.851562 C 113.574219 363.628906 108.902344 363.25 109.519531 360.015625 C 109.847656 358.296875 114.957031 345.507812 115.394531 345.78125 C 115.492188 345.84375 119.4375 350.589844 127.992188 351.410156 C 121.566406 347.339844 118.785156 344.636719 118.75 344.0625 C 118.46875 339.742188 121.335938 337.125 121.839844 331.238281 C 122.617188 322.222656 119.675781 324.242188 117.597656 316.875 C 117.417969 316.234375 125.851562 317.617188 125.613281 317.054688 C 125.417969 316.582031 121.117188 315.113281 120.03125 314.417969 C 118.867188 313.675781 117.015625 313.367188 115.265625 313.007812 C 108.894531 311.707031 108.046875 304.085938 101.375 301.578125 C 98.507812 300.507812 94.742188 298.960938 91.957031 297.242188 C 89.207031 295.5625 87.378906 293.664062 88.214844 291.851562 C 88.554688 291.117188 90.0625 290.585938 92.574219 289.882812 C 98.511719 288.257812 107.636719 290.335938 112.335938 291.570312 C 100.390625 284.972656 90.71875 286.613281 85.546875 289.566406 C 78.550781 293.546875 74.367188 292.261719 67.921875 295.246094 C 64.730469 296.726562 68.6875 295.957031 64.042969 296.574219 C 63.632812 292.773438 74.339844 280.832031 76.941406 273.046875 C 76.917969 273.082031 76.902344 273.117188 76.878906 273.15625 C 76.863281 273.183594 76.851562 273.207031 76.832031 273.234375 C 75.253906 275.988281 67.101562 287.453125 59.734375 295.847656 C 59.277344 296.375 58.359375 296.386719 57.378906 296.316406 L 57.433594 296.03125 C 53.082031 300.972656 49.570312 304.992188 49.035156 305.890625 C 46.828125 307.285156 39.40625 310.996094 37.320312 311.484375 C 32.5625 312.605469 29.097656 311.21875 24.277344 311.910156 C 17.964844 314.1875 15.167969 310.585938 15.027344 306.019531 C 15.351562 306.300781 15.699219 306.574219 15.988281 306.855469 C 16.492188 307.335938 17.328125 307.609375 17.710938 308.242188 C 16.269531 305.847656 15.34375 303.597656 14.679688 301.21875 C 14.535156 299.398438 16.105469 296.984375 16.28125 294.367188 C 16.492188 291.414062 15.261719 288.242188 15.648438 286.804688 C 17.296875 280.773438 21.144531 275.828125 26.191406 271.625 C 29.011719 269.285156 32.007812 267.914062 35.417969 265.980469 C 36.574219 265.316406 40.753906 267.828125 41.609375 268.734375 C 41.609375 268.683594 41.617188 268.617188 41.617188 268.566406 C 40.644531 267.074219 39.363281 265.246094 38.09375 264.476562 C 37.566406 264.152344 36.949219 264.03125 36.300781 264.296875 C 36.234375 263.207031 36.101562 262.679688 37.3125 262.019531 C 49.613281 255.289062 64.097656 250.222656 72.304688 243.570312 C 72.78125 243.1875 73.382812 243.378906 73.765625 243.4375 C 74.3125 243.515625 77.699219 246.539062 77.671875 246.742188 C 78.09375 246.554688 75.460938 243.171875 75.199219 243.058594 C 75.699219 242.574219 75.890625 242.390625 76.320312 241.882812 C 78.421875 240.625 80.90625 228.816406 83.917969 226.371094 C 85.199219 225.335938 86.957031 224.539062 88.074219 223.683594 C 91.214844 221.308594 92.019531 221.015625 93.023438 221.054688 C 93.160156 221.058594 99.269531 221.082031 99.40625 221.113281 C 99.515625 220.835938 94.359375 219.484375 94.441406 219.226562 C 94.527344 218.980469 94.554688 218.902344 94.628906 218.660156 C 94.78125 218.167969 94.933594 217.683594 95.046875 217.242188 C 96.242188 212.890625 94.765625 207.847656 92.808594 203.886719 C 91.757812 205.050781 89.894531 205.078125 89.417969 203.574219 C 91.253906 202.519531 88.644531 200.160156 87.339844 201.625 C 86.574219 202.46875 83.25 202.164062 84.027344 197.839844 C 80.839844 198.742188 77.574219 198.472656 75.277344 196.582031 C 72.164062 194.914062 69.464844 191.09375 68.15625 189.730469 C 66.523438 188 64.851562 188.074219 63.609375 186.667969 C 62.804688 185.738281 62.570312 184.785156 61.28125 183.390625 C 59.730469 181.699219 57.234375 179.378906 57.617188 175.644531 L 56.023438 173.167969 C 55.859375 172.9375 55.90625 172.570312 55.867188 172.449219 C 55.648438 171.914062 55.449219 171.085938 55.457031 170.71875 C 55.46875 170.003906 54.480469 168.21875 54.820312 167.1875 C 55.1875 166.0625 56.640625 164.808594 55.734375 160.078125 C 55.40625 158.320312 56.652344 157.308594 57.304688 155.613281 C 57.605469 154.804688 57.003906 152.558594 57.761719 151.632812 C 58.15625 151.246094 61.105469 147.957031 61.222656 147.421875 C 61.460938 146.242188 62.792969 142.5625 63.683594 141.714844 C 64.496094 140.949219 66.371094 140.699219 67.261719 139.84375 C 68.558594 138.625 70.480469 137.90625 71.222656 136.40625 C 72.457031 133.902344 74.464844 134.296875 76.746094 133.5625 C 78.300781 132.085938 82.050781 132.40625 83.355469 130.96875 C 86.324219 127.710938 91.15625 129.007812 91.742188 129.976562 C 92.023438 130.433594 92.570312 129.019531 93.144531 128.9375 C 93.273438 128.925781 93.410156 128.902344 93.53125 128.894531 Z M 288.222656 60.710938 C 266.234375 40.648438 232.347656 21.617188 189.335938 11.703125 C 160.453125 5.042969 127.785156 4.664062 98.492188 6.972656 C 92.710938 7.429688 86.917969 7.75 81.136719 7.613281 C 70.917969 7.371094 62.289062 5.351562 57.972656 0.179688 C 54.460938 8.824219 65.320312 14.472656 76.03125 14.949219 C 83.941406 15.296875 92.054688 14.59375 100.179688 13.921875 C 127.988281 11.65625 155.390625 13.828125 182.523438 20.492188 C 224.539062 30.828125 255.984375 50.605469 278.496094 69.554688 Z M 288.222656 60.710938 "/></g></g></svg>